<?xml version="1.0" standalone="no"?>
<!DOCTYPE svg PUBLIC "-//W3C//DTD SVG 20010904//EN"
 "http://www.w3.org/TR/2001/REC-SVG-20010904/DTD/svg10.dtd">
<svg version="1.0" xmlns="http://www.w3.org/2000/svg"
 width="433.000000pt" height="577.000000pt" viewBox="0 0 433.000000 577.000000"
 preserveAspectRatio="xMidYMid meet">
<metadata>
Created by potrace 1.16, written by Peter Selinger 2001-2019
</metadata>
<g transform="translate(0.000000,577.000000) scale(0.100000,-0.100000)"
fill="#000000" stroke="none">
<path d="M2027 5514 c-1 -1 -19 -4 -41 -7 -21 -3 -43 -10 -49 -16 -6 -6 -21
-11 -33 -11 -12 0 -35 -13 -51 -30 -45 -46 -135 -110 -154 -110 -19 0 -79 -46
-79 -61 0 -6 5 -7 12 -3 7 4 8 3 4 -5 -6 -9 -11 -9 -21 -1 -11 9 -12 6 -8 -12
3 -16 2 -19 -4 -10 -8 10 -15 8 -36 -9 -15 -11 -25 -25 -21 -30 3 -5 0 -8 -7
-7 -7 2 -17 -6 -23 -17 -6 -11 -46 -55 -89 -98 -42 -43 -77 -85 -77 -93 0 -8
-4 -13 -9 -10 -5 3 -14 -18 -20 -47 -23 -103 -43 -173 -61 -212 -27 -57 -51
-145 -39 -145 5 0 9 8 9 18 0 9 4 23 8 30 5 8 8 -1 8 -22 -1 -19 -4 -32 -8
-29 -5 2 -8 -8 -9 -24 -1 -15 -5 -39 -10 -53 -7 -20 -8 -16 -4 15 l5 40 -13
-30 c-8 -16 -17 -72 -20 -123 -4 -51 -14 -120 -23 -155 -9 -34 -16 -82 -15
-107 0 -32 -2 -41 -9 -30 -7 10 -8 5 -3 -19 4 -25 3 -32 -5 -27 -8 5 -11 -1
-9 -16 1 -14 -3 -22 -10 -21 -8 2 -10 -4 -6 -14 5 -12 3 -14 -7 -8 -8 5 -11 4
-6 -3 3 -6 1 -23 -5 -39 -6 -15 -12 -37 -14 -48 -1 -11 -3 -24 -4 -28 0 -5 -5
-6 -10 -3 -5 4 -7 -4 -4 -16 4 -19 3 -20 -7 -8 -9 12 -10 10 -6 -12 4 -18 2
-28 -5 -28 -6 0 -9 -6 -6 -14 3 -8 -5 -29 -19 -47 -26 -36 -31 -55 -11 -43 8
6 8 3 -2 -9 -7 -9 -11 -24 -7 -32 3 -8 2 -15 -2 -15 -4 0 -7 -16 -6 -35 1 -19
-1 -35 -5 -35 -4 0 -12 -38 -19 -84 -7 -46 -22 -110 -33 -142 -19 -55 -29
-104 -30 -147 0 -9 -4 -15 -8 -12 -7 4 -38 -115 -43 -162 -1 -7 -4 -13 -7 -13
-3 0 -7 -19 -8 -41 0 -23 -5 -44 -10 -48 -4 -3 -16 -24 -26 -45 -15 -33 -16
-37 -3 -27 22 18 20 -1 -2 -25 -21 -23 -53 -119 -54 -164 -1 -34 -3 -36 -63
-45 -56 -9 -59 -10 -72 -18 -6 -4 -32 -2 -57 5 -35 9 -49 9 -57 1 -9 -9 -7
-12 7 -12 37 -1 50 -5 62 -17 7 -8 8 -15 2 -19 -6 -3 -10 -2 -10 4 0 6 -7 8
-15 5 -22 -9 -18 -24 7 -24 l21 0 -22 -19 c-12 -11 -21 -22 -19 -25 8 -16 -40
-65 -91 -92 -193 -105 -291 -165 -356 -221 l-75 -64 0 -1070 0 -1069 870 0
c769 0 869 2 864 15 -4 8 -1 15 5 15 6 0 11 -7 11 -15 0 -13 42 -15 320 -15
298 0 320 1 320 18 1 16 1 16 14 0 12 -17 70 -18 970 -18 l956 0 0 598 c0 452
-3 601 -12 610 -9 9 -9 12 0 12 9 0 12 58 12 230 0 147 -4 230 -10 230 -5 0
-10 5 -10 11 0 5 5 7 10 4 6 -4 10 16 10 53 0 60 -14 89 -62 132 -9 8 -50 56
-91 106 -41 50 -107 119 -148 155 -80 70 -100 91 -143 144 -51 64 -235 169
-264 151 -12 -7 -128 22 -179 45 -24 10 -46 19 -49 19 -14 0 -64 42 -59 50 3
5 0 11 -5 13 -6 3 -5 4 2 2 7 -1 12 -8 10 -14 -1 -6 2 -11 8 -11 15 0 12 16
-5 30 -9 7 -14 19 -11 26 3 8 0 11 -9 7 -8 -3 -12 -10 -9 -17 3 -6 -7 5 -22
24 -16 19 -29 37 -29 40 0 3 -4 10 -8 17 -4 6 -4 18 -1 26 3 8 -2 36 -10 61
-18 52 -22 131 -6 121 6 -3 10 -2 10 4 0 5 -4 12 -8 15 -4 3 -6 21 -4 40 3 24
8 33 16 29 7 -4 6 -1 -2 9 -7 9 -14 57 -17 118 -2 57 -8 112 -11 124 l-7 21
24 -20 23 -20 -22 32 c-27 38 -27 44 -4 36 14 -5 13 -3 -3 10 -11 9 -15 17 -9
17 14 0 14 30 0 30 -5 0 -2 6 9 13 17 13 13 43 -4 33 -4 -3 -8 1 -8 9 0 8 4
12 9 9 4 -3 8 1 9 8 0 7 4 4 8 -7 7 -16 9 -13 12 17 3 23 1 35 -6 31 -5 -3 9
12 31 33 25 23 44 52 49 72 3 18 10 30 15 27 14 -9 5 205 -15 335 -27 176 -52
195 -60 45 -2 -38 -2 -60 1 -47 6 26 19 29 21 5 1 -10 4 -40 7 -68 3 -27 5
-58 6 -68 0 -10 5 -15 10 -12 6 3 10 0 10 -7 0 -7 3 -31 7 -52 4 -28 3 -37 -5
-32 -8 5 -12 -3 -12 -26 0 -18 -4 -47 -9 -64 -9 -33 -56 -90 -64 -77 -3 4 -3
34 -1 66 1 31 -1 57 -6 57 -4 0 -7 8 -5 18 2 9 6 67 9 127 3 61 10 139 15 174
6 35 10 67 9 70 -3 27 4 61 11 57 30 -19 18 234 -18 387 -11 45 -22 99 -25
120 -3 21 -15 56 -26 77 -11 22 -19 43 -18 47 4 14 -13 53 -21 49 -4 -3 -7 5
-7 17 1 13 -4 21 -12 19 -8 -1 -11 2 -6 9 4 7 0 17 -9 23 -8 7 -31 47 -51 90
-80 173 -199 324 -321 407 -27 19 -53 38 -56 42 -3 5 -8 8 -10 7 -11 -4 -38
13 -33 21 3 5 -1 7 -8 4 -7 -3 -26 4 -43 15 -32 21 -27 27 8 9 33 -17 8 4 -35
30 -26 15 -38 18 -38 10 0 -9 -4 -8 -12 2 -20 24 -126 52 -206 54 -40 1 -68
-2 -61 -6 21 -12 -65 -4 -88 9 -18 10 -146 14 -156 6z m268 -324 c4 -6 12 -7
18 -3 15 9 78 4 92 -7 6 -5 21 -7 32 -4 19 5 63 -12 176 -68 10 -5 22 -6 27
-3 6 4 10 1 10 -4 0 -6 5 -11 12 -11 17 0 88 -71 88 -89 0 -8 3 -12 6 -8 12
11 69 -67 60 -81 -3 -5 3 -16 14 -24 18 -16 18 -15 13 20 -5 35 -4 36 10 16
22 -29 34 -80 17 -69 -8 5 -7 -1 3 -16 10 -14 17 -44 18 -74 1 -38 3 -44 8
-25 7 23 8 21 14 -15 4 -22 7 -60 8 -85 2 -44 2 -44 8 -10 6 33 8 30 29 -50
12 -47 29 -128 38 -180 8 -52 18 -98 20 -102 3 -5 7 -96 10 -204 2 -107 8
-214 14 -237 13 -58 13 -224 -1 -233 -6 -3 -9 -14 -6 -24 12 -45 -82 -341
-151 -475 -54 -105 -106 -172 -211 -275 -43 -41 -76 -81 -73 -88 2 -7 8 -10
13 -6 15 9 10 -18 -5 -30 -15 -12 -30 -86 -17 -86 5 0 16 -27 25 -60 12 -43
25 -65 47 -80 16 -12 27 -26 24 -31 -4 -5 2 -6 12 -2 10 3 15 3 11 -2 -10 -11
38 -55 60 -56 44 -1 100 -8 133 -17 25 -6 48 -5 82 6 39 13 49 13 63 1 34 -28
0 -218 -61 -334 -27 -54 -119 -206 -147 -244 -9 -13 -14 -29 -12 -35 4 -12
-42 -54 -116 -105 -110 -77 -315 -211 -322 -211 -4 0 -44 -22 -87 -49 -101
-64 -180 -82 -233 -55 -41 22 -133 101 -192 164 -22 24 -51 54 -62 66 -12 13
-20 25 -18 27 3 2 -21 27 -52 56 -41 38 -59 49 -68 41 -16 -13 -29 -1 -16 15
7 9 -4 24 -40 55 -28 24 -50 49 -50 56 0 7 -3 14 -7 16 -5 2 -18 23 -31 48
-13 25 -43 78 -67 119 -43 72 -61 124 -72 204 -3 24 -1 37 7 37 6 0 9 4 5 9
-3 5 -1 12 4 16 5 3 15 -3 21 -12 9 -16 10 -16 8 -1 -3 19 -4 19 57 28 25 4
45 3 45 -2 0 -15 30 -8 50 12 21 21 35 27 25 10 -9 -15 13 -12 40 6 14 9 25
13 25 10 0 -4 18 3 40 14 22 11 40 25 40 30 0 6 7 10 16 10 10 0 14 6 11 14
-3 8 -3 17 1 20 6 6 12 28 14 52 1 5 20 11 42 13 49 3 122 18 145 31 10 5 35
11 57 13 67 9 164 52 164 74 0 8 13 13 32 13 17 0 29 3 25 6 -3 4 -27 6 -53 6
-26 -1 -53 2 -58 7 -6 4 -28 11 -49 14 -21 3 -51 16 -67 29 -16 13 -45 34 -65
48 -20 14 -47 36 -58 50 -12 13 -35 38 -51 55 -17 16 -31 41 -32 55 -1 14 -2
34 -3 46 0 11 -10 30 -21 42 -11 12 -20 29 -19 39 0 11 3 13 6 5 2 -6 8 -10
13 -7 5 3 11 -4 15 -15 4 -11 15 -20 27 -20 11 0 34 -10 51 -22 18 -13 37 -22
43 -20 6 1 17 -5 24 -13 20 -24 60 -19 61 8 1 12 0 27 -1 32 -1 6 -3 15 -4 21
-3 16 -71 84 -85 84 -7 0 -11 10 -9 23 2 18 9 22 33 20 36 -1 105 -25 105 -35
0 -4 18 -11 40 -14 22 -4 40 -11 40 -16 0 -5 10 -8 23 -6 18 2 21 8 19 31 -3
25 -1 28 16 23 12 -4 22 -1 25 7 10 27 -21 42 -50 24 -9 -6 -13 -2 -13 12 0
12 3 20 8 19 4 0 14 2 22 5 29 12 160 27 229 27 39 0 73 5 76 11 4 6 22 8 45
4 66 -11 53 12 -14 25 -48 9 -69 9 -85 1 -12 -7 -21 -15 -21 -19 0 -4 -37 -8
-83 -9 -62 -2 -78 0 -63 9 15 8 16 12 5 19 -20 12 -37 11 -19 -1 11 -8 6 -10
-20 -7 -29 3 -43 13 -25 19 30 9 105 14 134 7 20 -4 40 -4 44 0 4 4 -23 11
-60 15 -37 4 -84 9 -103 11 -27 4 -30 3 -15 -4 18 -9 18 -10 -5 -10 -15 -1
-30 3 -35 8 -14 13 -115 30 -146 24 -16 -3 -32 1 -42 11 -8 9 -20 16 -26 16
-5 0 -16 8 -23 18 -7 11 -23 24 -35 31 -13 6 -23 19 -23 27 0 25 -25 45 -39
31 -8 -8 -11 -8 -11 2 0 7 -4 10 -8 7 -5 -3 -18 5 -29 18 -15 17 -28 22 -47
19 -14 -3 -29 -9 -32 -14 -8 -14 -84 -11 -84 3 0 6 -3 8 -7 4 -9 -9 -139 128
-142 151 -1 10 -3 37 -3 61 0 28 -4 42 -13 42 -21 0 9 136 37 165 21 22 27 23
108 17 144 -11 308 -8 322 6 7 7 31 12 55 12 43 0 44 -1 43 -32 -1 -18 0 -42
2 -53 2 -13 -2 -19 -11 -17 -9 2 -11 -3 -7 -14 4 -10 0 -22 -11 -29 -26 -18
-113 -159 -119 -192 -3 -15 -3 -37 1 -50 8 -35 64 -83 96 -84 38 -2 41 -3 59
-13 8 -6 50 -9 95 -7 69 2 82 5 97 24 23 29 23 30 -11 45 -16 7 -54 37 -85 67
-31 30 -56 52 -56 49 0 -4 -6 -1 -14 5 -15 13 -12 75 6 97 10 14 17 42 25 104
4 32 15 53 35 72 24 22 27 32 21 55 -4 15 -6 37 -6 48 2 40 -18 161 -36 220
-14 43 -24 60 -36 59 -14 -2 -15 0 -1 21 16 24 16 24 -15 13 -16 -6 -33 -8
-36 -4 -4 3 -1 6 5 6 7 0 12 6 12 14 0 8 6 17 13 19 8 4 7 6 -4 6 -8 1 -20 -4
-26 -10 -8 -8 -13 -2 -18 20 -5 24 -10 29 -19 22 -7 -6 -15 -8 -19 -5 -3 3 -3
-5 -1 -18 5 -23 5 -23 -11 -3 -9 11 -24 20 -34 20 -10 0 -25 6 -35 14 -24 20
-136 30 -170 16 -11 -5 -21 -3 -26 5 -4 7 -15 10 -24 7 -9 -4 -16 -4 -16 -2 0
10 51 79 71 96 12 11 19 19 16 19 -3 0 0 15 8 34 8 19 12 43 8 52 -5 13 -3 16
10 11 13 -5 16 -1 15 18 -1 14 -7 25 -12 25 -5 0 -1 7 10 15 12 9 14 14 6 15
-9 0 -11 7 -7 20 3 10 1 29 -6 41 -29 54 -16 137 30 193 13 16 14 18 1 12 -8
-4 7 13 34 38 27 25 53 43 58 40 5 -4 16 3 24 15 9 12 20 19 25 16 5 -4 9 -2
9 3 0 5 15 15 33 22 17 6 40 16 49 21 10 5 33 9 52 9 19 0 37 4 40 9 3 5 18 9
33 9 15 0 29 4 30 9 2 5 17 8 33 5 21 -3 32 1 36 12 7 18 20 21 29 6z"/>
<path d="M2470 4151 c0 -12 -6 -21 -13 -21 -12 0 -13 -19 -8 -84 1 -4 9 -5 19
-1 12 4 11 1 -5 -15 -27 -24 -29 -40 -8 -40 8 0 15 -5 15 -11 0 -5 4 -8 8 -5
4 2 14 1 22 -5 13 -7 12 -9 -2 -9 -22 0 -23 -13 -3 -30 8 -7 15 -9 15 -6 0 4
9 2 20 -4 11 -6 18 -15 15 -19 -13 -22 163 -41 195 -21 16 10 21 7 -55 31 -38
12 -39 13 -15 20 16 4 19 7 8 8 -19 1 -26 31 -8 31 6 0 10 -4 10 -10 0 -5 12
-10 28 -10 21 0 24 2 12 10 -9 6 -10 10 -3 10 6 0 15 -4 18 -10 3 -5 12 -10
18 -10 7 0 6 4 -3 10 -11 7 -2 8 28 4 39 -6 42 -5 35 12 -6 16 -5 17 9 6 23
-18 59 -23 75 -10 10 8 17 7 28 -8 9 -12 14 -14 15 -6 0 16 -73 87 -120 116
-19 13 -66 32 -105 44 -100 30 -110 33 -147 36 -18 2 -48 7 -66 10 -28 7 -32
5 -32 -13z"/>
</g>
</svg>
